<?xml version="1.0" encoding="UTF-8" standalone="no"?>
<!-- Created with Inkscape (http://www.inkscape.org/) -->

<svg
   xmlns:dc="http://purl.org/dc/elements/1.1/"
   xmlns:cc="http://creativecommons.org/ns#"
   xmlns:rdf="http://www.w3.org/1999/02/22-rdf-syntax-ns#"
   xmlns:svg="http://www.w3.org/2000/svg"
   xmlns="http://www.w3.org/2000/svg"
   xmlns:sodipodi="http://sodipodi.sourceforge.net/DTD/sodipodi-0.dtd"
   xmlns:inkscape="http://www.inkscape.org/namespaces/inkscape"
   id="svg4479"
   height="96"
   viewBox="0 0 96 96"
   width="96"
   version="1.1"
   sodipodi:docname="ubuntu-launcher.svg"
   inkscape:version="0.92.2 (5c3e80d, 2017-08-06)">
  <defs
     id="defs21" />
  <sodipodi:namedview
     pagecolor="#ffffff"
     bordercolor="#666666"
     borderopacity="1"
     objecttolerance="10"
     gridtolerance="10"
     guidetolerance="10"
     inkscape:pageopacity="0"
     inkscape:pageshadow="2"
     inkscape:window-width="1376"
     inkscape:window-height="875"
     id="namedview19"
     showgrid="true"
     inkscape:zoom="6.78125"
     inkscape:cx="47.926267"
     inkscape:cy="48"
     inkscape:window-x="64"
     inkscape:window-y="25"
     inkscape:window-maximized="1"
     inkscape:current-layer="layer1"
     inkscape:pagecheckerboard="true">
    <inkscape:grid
       type="xygrid"
       id="grid816" />
  </sodipodi:namedview>
  <metadata
     id="metadata4484">
    <rdf:RDF>
      <cc:Work
         rdf:about="">
        <dc:format>image/svg+xml</dc:format>
        <dc:type
           rdf:resource="http://purl.org/dc/dcmitype/StillImage" />
        <dc:title />
      </cc:Work>
    </rdf:RDF>
  </metadata>
  <g
     id="layer1"
     transform="translate(847.5695,-703.93)">
    <path
       id="path3"
       style="fill:#ffffff;stroke-width:0.88888848"
       d="m -799.3455,719.56874 c -17.67322,0 -31.99918,14.3256 -31.99918,31.99926 0,17.67202 14.32596,31.99918 31.99918,31.99918 17.67366,0 32.00082,-14.32716 32.00082,-31.99918 0,-17.67366 -14.32716,-31.99926 -32.00082,-31.99926 z m 10.99424,8.88288 c 0.68864,0.0182 1.38278,0.20312 2.02126,0.57155 2.04379,1.18042 2.74309,3.79203 1.56266,5.83558 -1.17895,2.0433 -3.79026,2.74249 -5.83382,1.56265 -2.04223,-1.17899 -2.74307,-3.79019 -1.56428,-5.83251 0.81169,-1.40508 2.29949,-2.17623 3.81418,-2.13725 z m -10.99424,4.55653 c 1.71813,0 3.3801,0.23933 4.95904,0.67515 0.27861,1.71689 1.29777,3.2973 2.92246,4.23503 1.62169,0.93496 3.4974,1.02982 5.12185,0.41618 3.15917,3.10656 5.21455,7.33073 5.51399,12.03704 l -6.08706,0.0909 c -0.5614,-6.3747 -5.91102,-11.37383 -12.42995,-11.37383 -1.87792,0 -3.65907,0.41835 -5.25626,1.16139 L -807.5695,734.93 c 2.47941,-1.22735 5.27119,-1.92076 8.224,-1.92076 z m -10.29581,3.11746 3.12355,5.23171 c -3.20904,2.25871 -5.30659,5.9887 -5.30659,10.21102 0,4.22211 2.09747,7.95331 5.30659,10.21074 l -3.12355,5.23204 c -3.73969,-2.49876 -6.52117,-6.3168 -7.67581,-10.78981 1.34856,-1.1005 2.21216,-2.77574 2.21216,-4.65256 0,-1.87808 -0.8636,-3.55373 -2.21216,-4.6542 1.156,-4.47165 3.93765,-8.28957 7.67581,-10.78829 z m -11.4618,11.16954 c 2.35921,0 4.27119,1.9123 4.27119,4.27286 0,2.35921 -1.91205,4.27273 -4.27119,4.27273 -2.36073,0 -4.27321,-1.9136 -4.27321,-4.27273 0,-2.36056 1.91255,-4.27286 4.27321,-4.27286 z m 34.18674,5.37956 6.09008,0.0896 c -0.2995,4.70628 -2.3562,8.93162 -5.51529,12.03857 -1.62455,-0.61366 -3.4991,-0.5217 -5.12186,0.4146 -1.62455,0.93924 -2.64393,2.51962 -2.92256,4.23636 -1.57859,0.43713 -3.24072,0.67547 -4.95892,0.67547 -2.95339,0 -5.74493,-0.69384 -8.224,-1.92246 l 2.96806,-5.31881 c 1.59695,0.743 3.37798,1.16022 5.25626,1.16022 6.51949,0 11.86852,-4.99586 12.42831,-11.37231 z m -1.66148,13.4669 c 1.51453,-0.0378 3.00208,0.73154 3.81254,2.13565 1.18043,2.04379 0.47914,4.65516 -1.56421,5.83393 -2.04328,1.18031 -4.65489,0.47965 -5.83379,-1.56391 -1.18061,-2.04242 -0.47944,-4.65386 1.5642,-5.83422 0.638,-0.36827 1.33273,-0.55374 2.02126,-0.57145 z"
       inkscape:connector-curvature="0" />
  </g>
</svg>
